<svg width="33" height="33" viewBox="0 0 33 33" fill="none" xmlns="http://www.w3.org/2000/svg">
<path d="M11.0669 2.96667V6.96667" stroke="white" stroke-width="2.02105" stroke-miterlimit="10" stroke-linecap="round" stroke-linejoin="round"/>
<path d="M21.7332 2.96667V6.96667" stroke="white" stroke-width="2.02105" stroke-miterlimit="10" stroke-linecap="round" stroke-linejoin="round"/>
<path d="M5.06689 12.4199H27.7336" stroke="white" stroke-width="2.02105" stroke-miterlimit="10" stroke-linecap="round" stroke-linejoin="round"/>
<path d="M26.0132 21.3266L21.2932 26.0466C21.1066 26.2333 20.9332 26.58 20.8932 26.8333L20.6399 28.6333C20.5465 29.2867 20.9999 29.74 21.6532 29.6467L23.4532 29.3933C23.7065 29.3533 24.0665 29.18 24.2399 28.9933L28.9599 24.2733C29.7732 23.46 30.1599 22.5133 28.9599 21.3133C27.7732 20.1267 26.8265 20.5133 26.0132 21.3266Z" stroke="white" stroke-width="2.02105" stroke-miterlimit="10" stroke-linecap="round" stroke-linejoin="round"/>
<path d="M25.3333 22.0066C25.7333 23.4466 26.8533 24.5666 28.2933 24.9666" stroke="white" stroke-width="2.02105" stroke-miterlimit="10" stroke-linecap="round" stroke-linejoin="round"/>
<path d="M16.3999 29.6333H11.0666C6.3999 29.6333 4.3999 26.9667 4.3999 22.9667V11.6333C4.3999 7.63334 6.3999 4.96667 11.0666 4.96667H21.7332C26.3999 4.96667 28.3999 7.63334 28.3999 11.6333V16.3" stroke="white" stroke-width="2.02105" stroke-miterlimit="10" stroke-linecap="round" stroke-linejoin="round"/>
<path d="M16.3942 18.5667H16.4062" stroke="white" stroke-width="2.69474" stroke-linecap="round" stroke-linejoin="round"/>
<path d="M11.4589 18.5667H11.4709" stroke="white" stroke-width="2.69474" stroke-linecap="round" stroke-linejoin="round"/>
<path d="M11.4589 22.5667H11.4709" stroke="white" stroke-width="2.69474" stroke-linecap="round" stroke-linejoin="round"/>
</svg>
