<svg width="28" height="28" viewBox="0 0 28 28" fill="none" xmlns="http://www.w3.org/2000/svg">
<path d="M14.1867 12.6816C14.0701 12.67 13.9301 12.67 13.8017 12.6816C11.0251 12.5883 8.82007 10.3133 8.82007 7.51331C8.82007 4.65498 11.1301 2.33331 14.0001 2.33331C16.8584 2.33331 19.1801 4.65498 19.1801 7.51331C19.1684 10.3133 16.9634 12.5883 14.1867 12.6816Z" stroke="#292D32" stroke-width="1.75" stroke-linecap="round" stroke-linejoin="round"/>
<path d="M8.35328 16.9867C5.52995 18.8767 5.52995 21.9567 8.35328 23.835C11.5616 25.9817 16.8233 25.9817 20.0316 23.835C22.8549 21.945 22.8549 18.865 20.0316 16.9867C16.8349 14.8517 11.5733 14.8517 8.35328 16.9867Z" stroke="#292D32" stroke-width="1.75" stroke-linecap="round" stroke-linejoin="round"/>
</svg>
