<svg width="25" height="25" viewBox="0 0 25 25" fill="none" xmlns="http://www.w3.org/2000/svg">
<path d="M7.19995 14.8V12.8H17.2V14.8H7.19995ZM7.19995 18.8V16.8H14.2V18.8H7.19995ZM5.19995 22.8C4.64995 22.8 4.17895 22.6044 3.78695 22.213C3.39562 21.821 3.19995 21.35 3.19995 20.8V6.80005C3.19995 6.25005 3.39562 5.77938 3.78695 5.38805C4.17895 4.99605 4.64995 4.80005 5.19995 4.80005H6.19995V2.80005H8.19995V4.80005H16.2V2.80005H18.2V4.80005H19.2C19.75 4.80005 20.221 4.99605 20.613 5.38805C21.0043 5.77938 21.2 6.25005 21.2 6.80005V20.8C21.2 21.35 21.0043 21.821 20.613 22.213C20.221 22.6044 19.75 22.8 19.2 22.8H5.19995ZM5.19995 20.8H19.2V10.8H5.19995V20.8Z" fill="#3A3A3A"/>
</svg>
