<svg width="24" height="24" viewBox="0 0 24 24" fill="none" xmlns="http://www.w3.org/2000/svg">
<path d="M8.99951 22.0011H14.9995C19.9995 22.0011 21.9995 20.0011 21.9995 15.001V9.00101C21.9995 4.00099 19.9995 2.00098 14.9995 2.00098H8.99951C3.99951 2.00098 1.99951 4.00099 1.99951 9.00101V15.001C1.99951 20.0011 3.99951 22.0011 8.99951 22.0011Z" stroke="#292D32" stroke-width="1.5" stroke-linecap="round" stroke-linejoin="round"/>
<path d="M8.99976 10.001C10.1043 10.001 10.9998 9.10556 10.9998 8.00099C10.9998 6.89641 10.1043 6.00098 8.99976 6.00098C7.89519 6.00098 6.99976 6.89641 6.99976 8.00099C6.99976 9.10556 7.89519 10.001 8.99976 10.001Z" stroke="#292D32" stroke-width="1.5" stroke-linecap="round" stroke-linejoin="round"/>
<path d="M2.66968 18.9511L7.59968 15.6411C8.38968 15.1111 9.52968 15.1711 10.2397 15.7811L10.5697 16.0711C11.3497 16.7411 12.6097 16.7411 13.3897 16.0711L17.5497 12.501C18.3297 11.831 19.5897 11.831 20.3697 12.501L21.9997 13.901" stroke="#292D32" stroke-width="1.5" stroke-linecap="round" stroke-linejoin="round"/>
</svg>
