<svg width="21" height="21" viewBox="0 0 21 21" fill="none" xmlns="http://www.w3.org/2000/svg">
<path d="M8.25358 9.08333C9.17406 9.08333 9.92025 8.33714 9.92025 7.41667C9.92025 6.49619 9.17406 5.75 8.25358 5.75C7.33311 5.75 6.58691 6.49619 6.58691 7.41667C6.58691 8.33714 7.33311 9.08333 8.25358 9.08333Z" stroke="#292D32" stroke-width="1.25" stroke-linecap="round" stroke-linejoin="round"/>
<path d="M11.5871 2.41675H8.25374C4.08708 2.41675 2.42041 4.08341 2.42041 8.25008V13.2501C2.42041 17.4167 4.08708 19.0834 8.25374 19.0834H13.2537C17.4204 19.0834 19.0871 17.4167 19.0871 13.2501V9.08341" stroke="#292D32" stroke-width="1.25" stroke-linecap="round" stroke-linejoin="round"/>
<path d="M15.7539 7.41675V2.41675L17.4206 4.08341" stroke="#292D32" stroke-width="1.25" stroke-linecap="round" stroke-linejoin="round"/>
<path d="M15.7536 2.41675L14.0869 4.08341" stroke="#292D32" stroke-width="1.25" stroke-linecap="round" stroke-linejoin="round"/>
<path d="M2.97852 16.5418L7.08685 13.7835C7.74518 13.3418 8.69518 13.3918 9.28685 13.9001L9.56185 14.1418C10.2118 14.7001 11.2618 14.7001 11.9118 14.1418L15.3785 11.1668C16.0285 10.6085 17.0785 10.6085 17.7285 11.1668L19.0868 12.3335" stroke="#292D32" stroke-width="1.25" stroke-linecap="round" stroke-linejoin="round"/>
</svg>
