<svg width="8" height="12" viewBox="0 0 8 12" fill="none" xmlns="http://www.w3.org/2000/svg">
<path d="M2.5 9.25H5.5M1.3 1H6.7C6.98003 1 7.12004 1 7.227 1.0545C7.32108 1.10243 7.39757 1.17892 7.4455 1.273C7.5 1.37996 7.5 1.51997 7.5 1.8V2.83726C7.5 3.08185 7.5 3.20414 7.47237 3.31923C7.44787 3.42127 7.40747 3.51881 7.35264 3.60828C7.2908 3.7092 7.20432 3.79568 7.03137 3.96863L5.56569 5.43431C5.36768 5.63232 5.26867 5.73133 5.23158 5.84549C5.19895 5.94591 5.19895 6.05409 5.23158 6.15451C5.26867 6.26867 5.36768 6.36768 5.56568 6.56568L7.03137 8.03137C7.20432 8.20432 7.2908 8.2908 7.35264 8.39172C7.40747 8.48119 7.44787 8.57873 7.47237 8.68077C7.5 8.79586 7.5 8.91815 7.5 9.16274V10.2C7.5 10.48 7.5 10.62 7.4455 10.727C7.39757 10.8211 7.32108 10.8976 7.227 10.9455C7.12004 11 6.98003 11 6.7 11H1.3C1.01997 11 0.879961 11 0.773005 10.9455C0.678924 10.8976 0.602433 10.8211 0.554497 10.727C0.5 10.62 0.5 10.48 0.5 10.2V9.16274C0.5 8.91815 0.5 8.79586 0.52763 8.68077C0.552127 8.57873 0.592531 8.48119 0.64736 8.39172C0.709202 8.2908 0.795677 8.20432 0.968629 8.03137L2.43432 6.56568C2.63232 6.36768 2.73133 6.26867 2.76842 6.15451C2.80105 6.05409 2.80105 5.94591 2.76842 5.84549C2.73133 5.73133 2.63232 5.63232 2.43431 5.43431L0.968629 3.96863C0.795678 3.79568 0.709201 3.7092 0.64736 3.60828C0.592531 3.51881 0.552127 3.42127 0.52763 3.31923C0.5 3.20414 0.5 3.08185 0.5 2.83726V1.8C0.5 1.51997 0.5 1.37996 0.554497 1.273C0.602433 1.17892 0.678924 1.10243 0.773005 1.0545C0.879961 1 1.01997 1 1.3 1Z" stroke="#F8934F" stroke-linecap="round" stroke-linejoin="round"/>
</svg>
