<svg width="20" height="20" viewBox="0 0 20 20" fill="none" xmlns="http://www.w3.org/2000/svg">
<path d="M7.49996 15.4167H12.5M5.49996 1.66669H14.5C14.9667 1.66669 15.2 1.66669 15.3783 1.75751C15.5351 1.83741 15.6626 1.96489 15.7425 2.12169C15.8333 2.29995 15.8333 2.53331 15.8333 3.00002V4.72878C15.8333 5.13644 15.8333 5.34026 15.7872 5.53207C15.7464 5.70213 15.6791 5.86471 15.5877 6.01383C15.4846 6.18202 15.3405 6.32615 15.0522 6.6144L12.6094 9.05721C12.2794 9.38723 12.1144 9.55223 12.0526 9.74251C11.9982 9.90988 11.9982 10.0902 12.0526 10.2575C12.1144 10.4478 12.2794 10.6128 12.6094 10.9428L15.0522 13.3856C15.3405 13.6739 15.4846 13.818 15.5877 13.9862C15.6791 14.1353 15.7464 14.2979 15.7872 14.468C15.8333 14.6598 15.8333 14.8636 15.8333 15.2713V17C15.8333 17.4667 15.8333 17.7001 15.7425 17.8783C15.6626 18.0351 15.5351 18.1626 15.3783 18.2425C15.2 18.3334 14.9667 18.3334 14.5 18.3334H5.49996C5.03325 18.3334 4.79989 18.3334 4.62163 18.2425C4.46483 18.1626 4.33735 18.0351 4.25745 17.8783C4.16663 17.7001 4.16663 17.4667 4.16663 17V15.2713C4.16663 14.8636 4.16663 14.6598 4.21268 14.468C4.2535 14.2979 4.32084 14.1353 4.41223 13.9862C4.5153 13.818 4.65942 13.6739 4.94767 13.3856L7.39048 10.9428C7.7205 10.6128 7.8855 10.4478 7.94733 10.2575C8.00171 10.0902 8.00171 9.90988 7.94733 9.74251C7.88551 9.55223 7.72049 9.38722 7.39048 9.05721L4.94767 6.6144C4.65942 6.32615 4.51529 6.18202 4.41223 6.01383C4.32084 5.86471 4.2535 5.70213 4.21268 5.53207C4.16663 5.34026 4.16663 5.13644 4.16663 4.72878V3.00002C4.16663 2.53331 4.16663 2.29995 4.25745 2.12169C4.33735 1.96489 4.46483 1.83741 4.62163 1.75751C4.79989 1.66669 5.03325 1.66669 5.49996 1.66669Z" stroke="white" stroke-width="1.66667" stroke-linecap="round" stroke-linejoin="round"/>
</svg>
