<svg width="25" height="25" viewBox="0 0 25 25" fill="none" xmlns="http://www.w3.org/2000/svg">
<path d="M7.1919 15.302C6.92669 15.302 6.67233 15.4074 6.4848 15.5949C6.29726 15.7824 6.1919 16.0368 6.1919 16.302V18.084C4.90298 16.6264 4.19164 14.7478 4.1919 12.802C4.19147 12.5079 4.20884 12.214 4.2439 11.922C4.26298 11.7901 4.2555 11.6557 4.2219 11.5267C4.18829 11.3978 4.12924 11.2768 4.04822 11.171C3.96719 11.0651 3.86583 10.9766 3.75009 10.9105C3.63434 10.8444 3.50656 10.8021 3.37424 10.7861C3.24192 10.7701 3.10773 10.7807 2.97957 10.8173C2.85141 10.8539 2.73186 10.9158 2.62795 10.9992C2.52404 11.0827 2.43786 11.1861 2.37449 11.3034C2.31111 11.4206 2.27181 11.5494 2.2589 11.682C2.21374 12.0536 2.19136 12.4277 2.1919 12.802C2.19327 15.1882 3.05092 17.4947 4.6089 19.302H3.1919C2.92669 19.302 2.67233 19.4074 2.4848 19.5949C2.29726 19.7824 2.1919 20.0368 2.1919 20.302C2.1919 20.5672 2.29726 20.8216 2.4848 21.0091C2.67233 21.1967 2.92669 21.302 3.1919 21.302H7.1919C7.34829 21.3 7.50193 21.2606 7.64004 21.1872C7.77815 21.1138 7.89673 21.0085 7.9859 20.88C7.9969 20.865 8.0119 20.853 8.0229 20.837C8.0299 20.827 8.0299 20.815 8.0359 20.805C8.08353 20.7246 8.11924 20.6377 8.1419 20.547C8.15691 20.496 8.16761 20.4438 8.1739 20.391C8.1769 20.361 8.1919 20.334 8.1919 20.302V16.302C8.1919 16.0368 8.08655 15.7824 7.89901 15.5949C7.71147 15.4074 7.45712 15.302 7.1919 15.302V15.302ZM8.6919 6.80202H6.9089C8.36686 5.51303 10.2459 4.80169 12.1919 4.80202C12.4861 4.80138 12.78 4.81908 13.0719 4.85502C13.3354 4.88685 13.6007 4.8127 13.8096 4.64888C14.0184 4.48507 14.1536 4.24501 14.1854 3.98152C14.2172 3.71803 14.1431 3.45268 13.9793 3.24386C13.8155 3.03504 13.5754 2.89985 13.3119 2.86802C12.9403 2.82332 12.5662 2.80128 12.1919 2.80202C9.80572 2.80338 7.49926 3.66103 5.6919 5.21902V3.80202C5.6919 3.5368 5.58655 3.28245 5.39901 3.09491C5.21147 2.90738 4.95712 2.80202 4.6919 2.80202C4.42669 2.80202 4.17233 2.90738 3.9848 3.09491C3.79726 3.28245 3.6919 3.5368 3.6919 3.80202V7.80202C3.69808 7.8682 3.71115 7.93356 3.7309 7.99702C3.75501 8.12041 3.8029 8.23793 3.8719 8.34302L3.8839 8.36002C3.94986 8.45596 4.03251 8.53928 4.1279 8.60602C4.1389 8.61402 4.1449 8.62602 4.1559 8.63402C4.1699 8.64402 4.1859 8.64702 4.2009 8.65502C4.25783 8.68918 4.31816 8.71733 4.3809 8.73902C4.46511 8.76839 4.55291 8.78621 4.6419 8.79202C4.6599 8.79202 4.6739 8.80202 4.6919 8.80202H8.6919C8.95712 8.80202 9.21147 8.69666 9.39901 8.50913C9.58655 8.32159 9.6919 8.06724 9.6919 7.80202C9.6919 7.5368 9.58655 7.28245 9.39901 7.09491C9.21147 6.90738 8.95712 6.80202 8.6919 6.80202ZM20.6519 17.606C20.6277 17.483 20.5798 17.3658 20.5109 17.261L20.4999 17.244C20.4336 17.148 20.3507 17.0647 20.2549 16.998C20.2439 16.99 20.2389 16.978 20.2269 16.97C20.2169 16.963 20.2039 16.963 20.1929 16.956C20.066 16.8853 19.9269 16.8391 19.7829 16.82C19.7509 16.817 19.7239 16.802 19.6919 16.802H15.6919C15.4267 16.802 15.1723 16.9074 14.9848 17.0949C14.7973 17.2824 14.6919 17.5368 14.6919 17.802C14.6919 18.0672 14.7973 18.3216 14.9848 18.5091C15.1723 18.6967 15.4267 18.802 15.6919 18.802H17.4739C16.0163 20.0909 14.1376 20.8022 12.1919 20.802C11.8977 20.8023 11.6038 20.7843 11.3119 20.748C11.0484 20.7162 10.7831 20.7903 10.5742 20.9542C10.3654 21.118 10.2302 21.358 10.1984 21.6215C10.1666 21.885 10.2407 22.1504 10.4045 22.3592C10.5684 22.568 10.8084 22.7032 11.0719 22.735C11.4436 22.7797 11.8176 22.8021 12.1919 22.802C14.5781 22.8007 16.8845 21.943 18.6919 20.385V21.802C18.6919 22.0672 18.7973 22.3216 18.9848 22.5091C19.1723 22.6967 19.4267 22.802 19.6919 22.802C19.9571 22.802 20.2115 22.6967 20.399 22.5091C20.5865 22.3216 20.6919 22.0672 20.6919 21.802V17.802C20.6854 17.7358 20.672 17.6704 20.6519 17.607V17.606ZM21.1919 6.30202C21.4571 6.30202 21.7115 6.19666 21.899 6.00913C22.0865 5.82159 22.1919 5.56724 22.1919 5.30202C22.1919 5.0368 22.0865 4.78245 21.899 4.59491C21.7115 4.40738 21.4571 4.30202 21.1919 4.30202H17.1919C17.1267 4.30838 17.0624 4.32145 16.9999 4.34102L16.9929 4.34202C16.8717 4.36654 16.7563 4.41406 16.6529 4.48202L16.6329 4.49502C16.5373 4.56109 16.4544 4.64373 16.3879 4.73902C16.3799 4.74902 16.3679 4.75502 16.3599 4.76602C16.3529 4.77602 16.3529 4.78902 16.3459 4.80002C16.2746 4.92775 16.2285 5.06794 16.2099 5.21302C16.2069 5.24302 16.1919 5.27002 16.1919 5.30202V9.30202C16.1919 9.56724 16.2973 9.82159 16.4848 10.0091C16.6723 10.1967 16.9267 10.302 17.1919 10.302C17.4571 10.302 17.7115 10.1967 17.899 10.0091C18.0865 9.82159 18.1919 9.56724 18.1919 9.30202V7.51902C19.4808 8.97702 20.1921 10.856 20.1919 12.802C20.192 13.0962 20.1743 13.39 20.1389 13.682C20.1073 13.9452 20.1813 14.2102 20.3448 14.4188C20.5083 14.6275 20.7478 14.7628 21.0109 14.795C21.0514 14.7998 21.0921 14.8021 21.1329 14.802C21.377 14.8016 21.6126 14.7119 21.7951 14.5498C21.9777 14.3877 22.0946 14.1644 22.1239 13.922C22.1694 13.5504 22.1921 13.1764 22.1919 12.802C22.1905 10.4158 21.3329 8.10938 19.7749 6.30202H21.1919Z" fill="#3A3A3A"/>
</svg>
