<svg width="24" height="24" viewBox="0 0 24 24" fill="none" xmlns="http://www.w3.org/2000/svg">
<path d="M9.08976 9.00098C9.32486 8.33264 9.78891 7.76908 10.3997 7.41011C11.0105 7.05114 11.7287 6.91991 12.4269 7.03969C13.1252 7.15946 13.7586 7.5225 14.2148 8.0645C14.6711 8.60651 14.9208 9.2925 14.9198 10.001C14.9198 12.001 11.9198 13.001 11.9198 13.001M11.9998 17.001H12.0098M7.79976 21.001H16.1998C17.8799 21.001 18.72 21.001 19.3617 20.674C19.9262 20.3864 20.3852 19.9274 20.6728 19.3629C20.9998 18.7212 20.9998 17.8811 20.9998 16.201V7.80098C20.9998 6.12082 20.9998 5.28074 20.6728 4.63901C20.3852 4.07452 19.9262 3.61558 19.3617 3.32796C18.72 3.00098 17.8799 3.00098 16.1998 3.00098H7.79976C6.1196 3.00098 5.27952 3.00098 4.63778 3.32796C4.0733 3.61558 3.61436 4.07452 3.32674 4.63901C2.99976 5.28074 2.99976 6.12082 2.99976 7.80098V16.201C2.99976 17.8811 2.99976 18.7212 3.32674 19.3629C3.61436 19.9274 4.0733 20.3864 4.63778 20.674C5.27952 21.001 6.1196 21.001 7.79976 21.001Z" stroke="#3A3A3A" stroke-width="1.5" stroke-linecap="round" stroke-linejoin="round"/>
</svg>
