<svg width="24" height="25" viewBox="0 0 24 25" fill="none" xmlns="http://www.w3.org/2000/svg">
<path d="M9.3948 19.3723L9.97924 20.6868C10.153 21.0781 10.4365 21.4105 10.7955 21.6438C11.1544 21.8771 11.5734 22.0013 12.0015 22.0012C12.4296 22.0013 12.8485 21.8771 13.2075 21.6438C13.5664 21.4105 13.8499 21.0781 14.0237 20.6868L14.6081 19.3723C14.8162 18.9059 15.1661 18.5171 15.6081 18.2612C16.0529 18.0047 16.5675 17.8954 17.0781 17.949L18.5081 18.1012C18.9338 18.1462 19.3634 18.0668 19.7448 17.8726C20.1262 17.6783 20.4431 17.3775 20.657 17.0068C20.8712 16.6362 20.9732 16.2115 20.9508 15.7841C20.9283 15.3567 20.7822 14.945 20.5304 14.599L19.6837 13.4357C19.3822 13.0184 19.2211 12.516 19.2237 12.0012C19.2236 11.4878 19.3862 10.9876 19.6881 10.5723L20.5348 9.409C20.7867 9.06298 20.9327 8.65129 20.9552 8.22389C20.9777 7.7965 20.8756 7.37176 20.6615 7.00122C20.4476 6.63046 20.1307 6.32971 19.7493 6.13545C19.3678 5.94119 18.9382 5.86175 18.5126 5.90678L17.0826 6.059C16.5719 6.11263 16.0574 6.00334 15.6126 5.74678C15.1697 5.48947 14.8196 5.09858 14.6126 4.63011L14.0237 3.31567C13.8499 2.92439 13.5664 2.59194 13.2075 2.35862C12.8485 2.1253 12.4296 2.00115 12.0015 2.00122C11.5734 2.00115 11.1544 2.1253 10.7955 2.35862C10.4365 2.59194 10.153 2.92439 9.97924 3.31567L9.3948 4.63011C9.18773 5.09858 8.83767 5.48947 8.3948 5.74678C7.95001 6.00334 7.43547 6.11263 6.9248 6.059L5.49035 5.90678C5.06468 5.86175 4.63509 5.94119 4.25367 6.13545C3.87224 6.32971 3.55537 6.63046 3.34146 7.00122C3.12729 7.37176 3.02525 7.7965 3.04773 8.22389C3.07022 8.65129 3.21626 9.06298 3.46813 9.409L4.3148 10.5723C4.61674 10.9876 4.77934 11.4878 4.77924 12.0012C4.77934 12.5146 4.61674 13.0149 4.3148 13.4301L3.46813 14.5934C3.21626 14.9395 3.07022 15.3512 3.04773 15.7785C3.02525 16.2059 3.12729 16.6307 3.34146 17.0012C3.55558 17.3718 3.87249 17.6724 4.25386 17.8666C4.63523 18.0608 5.06472 18.1404 5.49035 18.0957L6.92035 17.9434C7.43102 17.8898 7.94557 17.9991 8.39035 18.2557C8.83488 18.5122 9.18656 18.9032 9.3948 19.3723Z" stroke="#3A3A3A" stroke-width="1.5" stroke-linecap="round" stroke-linejoin="round"/>
<path d="M11.9997 15.0012C13.6565 15.0012 14.9997 13.6581 14.9997 12.0012C14.9997 10.3444 13.6565 9.00122 11.9997 9.00122C10.3428 9.00122 8.99968 10.3444 8.99968 12.0012C8.99968 13.6581 10.3428 15.0012 11.9997 15.0012Z" stroke="#3A3A3A" stroke-width="1.5" stroke-linecap="round" stroke-linejoin="round"/>
</svg>
