<svg width="28" height="28" viewBox="0 0 28 28" fill="none" xmlns="http://www.w3.org/2000/svg">
<path d="M3.51172 13.09V18.3283C3.51172 23.5666 5.61172 25.6666 10.8501 25.6666H17.1384C22.3767 25.6666 24.4767 23.5666 24.4767 18.3283V13.09" stroke="#292D32" stroke-width="1.75" stroke-linecap="round" stroke-linejoin="round"/>
<path d="M14 14C16.135 14 17.71 12.2616 17.5 10.1266L16.73 2.33331H11.2817L10.5 10.1266C10.29 12.2616 11.865 14 14 14Z" stroke="#292D32" stroke-width="1.75" stroke-linecap="round" stroke-linejoin="round"/>
<path d="M21.3617 14C23.7183 14 25.445 12.0866 25.2117 9.74165L24.885 6.53331C24.465 3.49998 23.2984 2.33331 20.2417 2.33331H16.6833L17.5 10.5116C17.6983 12.4366 19.4367 14 21.3617 14Z" stroke="#292D32" stroke-width="1.75" stroke-linecap="round" stroke-linejoin="round"/>
<path d="M6.57986 14C8.50486 14 10.2432 12.4366 10.4299 10.5116L10.6865 7.93331L11.2465 2.33331H7.6882C4.63153 2.33331 3.46486 3.49998 3.04486 6.53331L2.72986 9.74165C2.49653 12.0866 4.2232 14 6.57986 14Z" stroke="#292D32" stroke-width="1.75" stroke-linecap="round" stroke-linejoin="round"/>
<path d="M14 19.8333C12.0517 19.8333 11.0834 20.8016 11.0834 22.75V25.6666H16.9167V22.75C16.9167 20.8016 15.9484 19.8333 14 19.8333Z" stroke="#292D32" stroke-width="1.75" stroke-linecap="round" stroke-linejoin="round"/>
</svg>
