<svg width="21" height="21" viewBox="0 0 21 21" fill="none" xmlns="http://www.w3.org/2000/svg">
<path d="M10.7531 10.7503C13.0543 10.7503 14.9198 8.88485 14.9198 6.58366C14.9198 4.28247 13.0543 2.41699 10.7531 2.41699C8.45191 2.41699 6.58643 4.28247 6.58643 6.58366C6.58643 8.88485 8.45191 10.7503 10.7531 10.7503Z" stroke="#292D32" stroke-width="1.25" stroke-linecap="round" stroke-linejoin="round"/>
<path d="M16.76 13.8664L13.81 16.8165C13.6933 16.9331 13.585 17.1498 13.56 17.3081L13.4017 18.4331C13.3433 18.8414 13.6267 19.1248 14.035 19.0664L15.16 18.9081C15.3183 18.8831 15.5433 18.7748 15.6517 18.6581L18.6016 15.7081C19.11 15.1998 19.3516 14.6081 18.6016 13.8581C17.86 13.1164 17.2683 13.3581 16.76 13.8664Z" stroke="#292D32" stroke-width="1.25" stroke-miterlimit="10" stroke-linecap="round" stroke-linejoin="round"/>
<path d="M16.3345 14.2916C16.5845 15.1916 17.2844 15.8916 18.1844 16.1416" stroke="#292D32" stroke-width="1.25" stroke-miterlimit="10" stroke-linecap="round" stroke-linejoin="round"/>
<path d="M3.59717 19.0833C3.59717 15.8583 6.80552 13.25 10.7555 13.25C11.6222 13.25 12.4555 13.375 13.2305 13.6083" stroke="#292D32" stroke-width="1.25" stroke-linecap="round" stroke-linejoin="round"/>
</svg>
