<svg width="24" height="24" viewBox="0 0 24 24" fill="none" xmlns="http://www.w3.org/2000/svg">
<path d="M12.1598 10.8705C12.0598 10.8605 11.9398 10.8605 11.8298 10.8705C9.44981 10.7905 7.55981 8.84052 7.55981 6.44051C7.55981 3.9905 9.53981 2.00049 11.9998 2.00049C14.4498 2.00049 16.4398 3.9905 16.4398 6.44051C16.4298 8.84052 14.5398 10.7905 12.1598 10.8705Z" stroke="#292D32" stroke-width="1.5" stroke-linecap="round" stroke-linejoin="round"/>
<path d="M7.15997 14.5607C4.73997 16.1807 4.73997 18.8208 7.15997 20.4308C9.90997 22.2708 14.42 22.2708 17.17 20.4308C19.59 18.8108 19.59 16.1707 17.17 14.5607C14.43 12.7307 9.91997 12.7307 7.15997 14.5607Z" stroke="#292D32" stroke-width="1.5" stroke-linecap="round" stroke-linejoin="round"/>
</svg>
