<svg width="32" height="32" viewBox="0 0 32 32" fill="none" xmlns="http://www.w3.org/2000/svg">
<path d="M10.6667 2.66666V6.66666" stroke="#113167" stroke-width="2" stroke-miterlimit="10" stroke-linecap="round" stroke-linejoin="round"/>
<path d="M21.3333 2.66666V6.66666" stroke="#113167" stroke-width="2" stroke-miterlimit="10" stroke-linecap="round" stroke-linejoin="round"/>
<path d="M24.2667 28.5333C26.6231 28.5333 28.5333 26.6231 28.5333 24.2667C28.5333 21.9103 26.6231 20 24.2667 20C21.9102 20 20 21.9103 20 24.2667C20 26.6231 21.9102 28.5333 24.2667 28.5333Z" stroke="#113167" stroke-width="2" stroke-linecap="round" stroke-linejoin="round"/>
<path d="M29.3333 29.3333L28 28" stroke="#113167" stroke-width="2" stroke-linecap="round" stroke-linejoin="round"/>
<path d="M4.66669 12.12H27.3334" stroke="#113167" stroke-width="2" stroke-miterlimit="10" stroke-linecap="round" stroke-linejoin="round"/>
<path d="M17.8267 29.3333H10.6667C6 29.3333 4 26.6667 4 22.6667V11.3333C4 7.33332 6 4.66666 10.6667 4.66666H21.3333C26 4.66666 28 7.33332 28 11.3333V17.3333" stroke="#113167" stroke-width="2" stroke-miterlimit="10" stroke-linecap="round" stroke-linejoin="round"/>
<path d="M15.994 18.2667H16.006" stroke="#113167" stroke-width="2.66667" stroke-linecap="round" stroke-linejoin="round"/>
<path d="M11.0591 18.2667H11.071" stroke="#113167" stroke-width="2.66667" stroke-linecap="round" stroke-linejoin="round"/>
<path d="M11.0591 22.2667H11.071" stroke="#113167" stroke-width="2.66667" stroke-linecap="round" stroke-linejoin="round"/>
</svg>
