<svg width="32" height="32" viewBox="0 0 32 32" fill="none" xmlns="http://www.w3.org/2000/svg">
<path d="M22.6667 13.3333H25.3333C28 13.3333 29.3333 12 29.3333 9.33332V6.66666C29.3333 3.99999 28 2.66666 25.3333 2.66666H22.6667C20 2.66666 18.6667 3.99999 18.6667 6.66666V9.33332C18.6667 12 20 13.3333 22.6667 13.3333Z" stroke="#113167" stroke-width="2" stroke-miterlimit="10" stroke-linecap="round" stroke-linejoin="round"/>
<path d="M6.66666 29.3333H9.33333C12 29.3333 13.3333 28 13.3333 25.3333V22.6667C13.3333 20 12 18.6667 9.33333 18.6667H6.66666C4 18.6667 2.66666 20 2.66666 22.6667V25.3333C2.66666 28 4 29.3333 6.66666 29.3333Z" stroke="#113167" stroke-width="2" stroke-miterlimit="10" stroke-linecap="round" stroke-linejoin="round"/>
<path d="M8 13.3333C10.9455 13.3333 13.3333 10.9455 13.3333 7.99999C13.3333 5.05447 10.9455 2.66666 8 2.66666C5.05448 2.66666 2.66666 5.05447 2.66666 7.99999C2.66666 10.9455 5.05448 13.3333 8 13.3333Z" stroke="#113167" stroke-width="2" stroke-miterlimit="10" stroke-linecap="round" stroke-linejoin="round"/>
<path d="M24 29.3333C26.9455 29.3333 29.3333 26.9455 29.3333 24C29.3333 21.0545 26.9455 18.6667 24 18.6667C21.0545 18.6667 18.6667 21.0545 18.6667 24C18.6667 26.9455 21.0545 29.3333 24 29.3333Z" stroke="#113167" stroke-width="2" stroke-miterlimit="10" stroke-linecap="round" stroke-linejoin="round"/>
</svg>
