<svg width="24" height="24" viewBox="0 0 24 24" fill="none" xmlns="http://www.w3.org/2000/svg">
<rect width="24" height="24" fill="white"/>
<path d="M12.8699 3.2C12.5599 3.11 12.2399 3.04 11.9099 3C10.9499 2.88 10.0299 2.95 9.16992 3.2C9.45992 2.46 10.1799 1.94 11.0199 1.94C11.8599 1.94 12.5799 2.46 12.8699 3.2Z" stroke="#292D32" stroke-width="1.5" stroke-miterlimit="10" stroke-linecap="round" stroke-linejoin="round"/>
<path d="M14.02 19.06C14.02 20.71 12.67 22.06 11.02 22.06C10.2 22.06 9.44002 21.72 8.90002 21.18C8.36002 20.64 8.02002 19.88 8.02002 19.06" stroke="#292D32" stroke-width="1.5" stroke-miterlimit="10"/>
<path d="M15.5728 3.93625C14.3704 2.8343 12.7705 2.15991 11.0199 2.15991C7.29571 2.15991 4.26993 5.1857 4.26993 8.90991V11.7999C4.26993 12.0145 4.22135 12.3286 4.1285 12.6631C4.03593 12.9965 3.91598 13.2905 3.80648 13.4746L3.80572 13.4759L2.6574 15.3831C2.19636 16.1493 2.10005 17.0091 2.38284 17.7728C2.66531 18.5357 3.29707 19.1252 4.13948 19.4103L4.14226 19.4113C8.60614 20.9027 13.4225 20.9028 17.8865 19.4116C19.5547 18.8594 20.2786 16.8933 19.373 15.384L18.2264 13.4796C18.1194 13.2923 18.0018 12.9973 17.9107 12.6653C17.8186 12.3293 17.7699 12.0148 17.7699 11.7999V9.80731C17.2045 9.62477 16.6941 9.31975 16.2699 8.92353V11.7999C16.2699 12.1951 16.3513 12.6506 16.4641 13.062C16.5772 13.4743 16.7382 13.9017 16.9303 14.2347L16.9374 14.2468L18.0868 16.1558C18.5006 16.8461 18.1653 17.7396 17.4145 17.9878L17.4123 17.9886C13.257 19.3769 8.77438 19.377 4.61904 17.989C4.16227 17.8341 3.89943 17.5488 3.78951 17.252C3.67982 16.9558 3.6936 16.5705 3.94245 16.1568L5.09245 14.2468L5.09414 14.244C5.29443 13.908 5.45913 13.4775 5.57385 13.0643C5.6885 12.6513 5.76993 12.1953 5.76993 11.7999V8.90991C5.76993 6.01413 8.12414 3.65991 11.0199 3.65991C12.6213 3.65991 14.0621 4.38795 15.0274 5.52914C15.0951 4.95159 15.2859 4.41165 15.5728 3.93625Z" fill="#292D32"/>
<path d="M18.5 9C19.8807 9 21 7.88071 21 6.5C21 5.11929 19.8807 4 18.5 4C17.1193 4 16 5.11929 16 6.5C16 7.88071 17.1193 9 18.5 9Z" fill="#EE222E"/>
</svg>
